<svg xmlns="http://www.w3.org/2000/svg" fill="none" viewBox="0 0 68 71"><g fill-rule="evenodd" clip-path="url(#clip0_3802_17716)" clip-rule="evenodd"><path fill="#673E89" d="M3.367 0h61.249c1.813 0 3.367 1.554 3.367 3.367v63.19c0 1.944-1.554 3.498-3.367 3.498H3.366C1.425 70.055 0 68.501 0 66.558V3.367C0 1.554 1.424 0 3.367 0"/><path fill="#F7A131" d="M0 23.697h3.237c29.524 0 53.48-3.108 53.48-8.158 0-5.568-23.956-10.1-53.48-10.1H0V4.123c2.242-.071 4.97.15 7.251.15 31.855 0 57.624 6.475 57.624 13.986 0 7.51-25.77 12.819-57.624 12.819-2.28 0-5.008 0-7.251-.102z"/><path fill="#fff" d="M27.452 48.3c0-.519-.13-1.036-.13-1.684 0-5.05 4.144-9.193 9.065-9.193 5.05 0 9.064 4.143 9.064 9.193s-4.014 9.194-9.064 9.194c-3.755 0-6.993-2.331-8.417-5.698h-2.201c-2.331 0-4.533-.13-6.475-.388v4.014h8.546v1.812H17.481v-6.215c-2.46-.519-4.014-1.425-4.014-2.33 0-.907 1.165-1.943 4.014-2.461v-5.439L5.957 55.551h-2.33l12.3-17.74h11.914v1.943h-8.547v4.532a46 46 0 0 1 4.661-.259c-1.813 0-3.366.259-4.661.518v3.366c1.813.26 4.144.518 6.733.518h1.425zm32.89-10.489v17.74h-1.941L48.3 41.177v14.374h-1.813v-17.74H48.3l10.1 14.503V37.81z"/><path fill="#673E89" d="M17.481 47.523c-1.295-.26-2.072-.777-2.072-1.166s.777-.906 2.072-1.294zm12.56 2.46c4.662-.518 8.03-1.554 8.03-2.978 0-1.166-1.554-2.202-6.605-2.72 2.979.39 5.05 1.296 5.05 2.072 0 .907-2.978 1.684-7.122 1.942-.13-.518-.13-1.035-.13-1.683 0-4.014 3.238-7.251 7.123-7.251a7.24 7.24 0 0 1 7.252 7.251c0 4.015-3.238 7.381-7.252 7.381-2.72 0-5.18-1.683-6.345-4.014"/><path fill="#fff" d="M9.323 64.227c-.13.13-.777.648-1.424.648-1.166 0-1.943-1.036-1.943-2.59 0-1.295.648-2.59 1.943-2.59.647 0 1.165.518 1.295.777v-.13c.13-.129.13-.389.259-.517a3.44 3.44 0 0 0-1.554-.39c-1.425 0-2.59 1.036-2.59 2.85 0 1.812.907 2.978 2.46 2.978.518 0 1.036-.13 1.554-.518zm1.943-4.402h1.036c.518.129.777.518.777 1.036 0 .647-.389 1.035-.907 1.165-.389.13-.777 0-.907 0zm-.518 5.308h.518v-2.72h.259l.518.778.906 1.166.389.776h.777l-.13-.258-.259-.39-1.424-2.2c.647-.13 1.295-.518 1.295-1.554 0-.778-.389-1.166-1.424-1.166h-1.425zm5.18-5.18h1.812v-.388h-2.46v5.569h2.46v-.518h-.647c-.389.13-.777.13-1.166.13v-2.461h1.036c.13 0 .389 0 .648.129 0-.13-.13-.259-.13-.259 0-.13.13-.13.13-.26h-1.684zm3.884-.128h.906c1.425 0 2.072.647 2.072 2.33 0 1.036-.259 1.943-1.036 2.33-.518.39-1.295.26-1.942.26zm-.648 5.308h1.425c.647 0 1.424-.129 2.072-.647.518-.518.777-1.295.777-2.46 0-.777-.13-1.555-.648-2.073-.647-.517-1.295-.388-2.072-.388h-1.553zm5.698 0h.648v-5.567h-.648zm4.014-5.18h1.425v-.388h-3.626c.13 0 .13.13.13.26 0 0 0 .129-.13.129h1.554v5.18h.647zm4.662 4.015c0 .26 0 .518-.13.777.26.259.777.518 1.166.518.907 0 1.683-.777 1.683-1.942 0-1.684-2.201-1.166-2.201-2.59 0-.648.389-1.036.907-1.036.388 0 .776.388.906.776.13-.258.13-.517.26-.647-.26-.259-.648-.389-1.037-.389-.777 0-1.554.518-1.554 1.554 0 1.813 2.202 1.166 2.202 2.72 0 .648-.389 1.166-.907 1.166-.647 0-.906-.39-1.165-.908zm4.662-4.014h1.813v-.389h-2.46v5.569h2.589c-.13-.13-.13-.259-.13-.259 0-.13 0-.13.13-.26h-.647c-.518.13-.906.13-1.295.13v-2.46h1.035c.26 0 .39 0 .648.129v-.518H38.2zm3.885-.13h1.036c.518.13.647.519.647 1.037q0 .97-.777 1.165c-.388.13-.777 0-.906 0zm-.648 5.31h.648v-2.72h.258l1.296 1.943c.129.259.258.518.517.776h.778l-.13-.258-.389-.39-1.424-2.2c.777-.13 1.425-.518 1.425-1.554 0-.778-.389-1.166-1.554-1.166h-1.425zm6.604-1.943c-.13.389-.26.648-.389 1.036h-.13l-.776-2.46-.518-1.425c-.13-.259-.13-.518-.259-.777h-.648c.26.648 1.296 3.626 2.072 5.568h.259c.258-.906 1.812-5.05 1.942-5.568h-.388l-.13.13-.388 1.294zm2.719 1.942h.648v-5.567h-.648zm5.957-.906c-.13.13-.777.648-1.424.648-1.166 0-1.944-1.036-1.944-2.59 0-1.295.648-2.59 1.944-2.59.647 0 1.165.518 1.294.777v-.13c.13-.129.13-.389.259-.517a3.44 3.44 0 0 0-1.553-.39c-1.425 0-2.59 1.036-2.59 2.85 0 1.812.906 2.978 2.46 2.978.518 0 1.036-.13 1.554-.518zm1.942-4.273h1.813v-.389h-2.46v5.569h2.59c-.13-.13-.13-.259-.13-.259 0-.13 0-.13.13-.26h-.648c-.518.13-.907.13-1.295.13v-2.46h1.036c.258 0 .388 0 .648.129v-.518h-1.684z"/></g><defs><clipPath id="clip0_3802_17716"><path fill="#fff" d="M0 0h67.983v70.055H0z"/></clipPath></defs></svg>
